# xmcd CD database file
#
# Track frame offsets:
#	150
#	19562
#	47860
#	64262
#	81365
#	114037
#	137560
#	173727
#	193907
#	220232
#	232982
#	253635
#	283410
#	305632
#
# Disc length: 4623 seconds
#
# Revision: 2
# Processed by: cddbd v1.5.2PL0 Copyright (c) Steve Scherf et al.
# Submitted via: CDex 1.51
#
DISCID=c9120d0e
DTITLE=Various Artist - Classic Jazz - The Sixties - Disc 2 of 2
DYEAR=2001
DGENRE=Jazz
TTITLE0=Art Pepper Quintet - Smack Up
TTITLE1=Art Blakey and the Jazz Messengers - Petty Larceny
TTITLE2=Sun Ra and  His Astro-Infinity Arkestra - Day by Day
TTITLE3=Abbey Lincoln - African Lady
TTITLE4=Miles Davis Quintet - Freedom Jazz Dance
TTITLE5=The Gil Evans Orchestra - Where Flamingos Fly
TTITLE6=Joe Henderson - Blue Bossa
TTITLE7=Jack McDuff - Whap!
TTITLE8=The Horace Silver Quintet - The Jody Grind
TTITLE9=Albert Ayler - Ghost
TTITLE10=Bill Evans and Jim Hall - Dream Gypsy
TTITLE11=McCoy Ryner - Four by Five
TTITLE12=Rahsaan Roland Kirk - The Inflated Tear
TTITLE13=Pharoah Sanders - The Creator Has a Master Plan (edit)
EXTD=YEAR: 2001
EXTT0=
EXTT1=
EXTT2=
EXTT3=
EXTT4=
EXTT5=
EXTT6=
EXTT7=
EXTT8=
EXTT9=
EXTT10=
EXTT11=
EXTT12=
EXTT13=
PLAYORDER=
